<svg width="38" height="37" viewBox="0 0 38 37" fill="none" xmlns="http://www.w3.org/2000/svg">
<g clip-path="url(#clip0_44_496)">
<path d="M0.794433 18.5742C0.794432 8.94141 8.81592 1.13672 18.7163 1.13672C28.6167 1.13672 36.6382 8.9414 36.6382 18.5742C36.6382 28.207 28.6167 36.0117 18.7163 36.0117C8.81592 36.0117 0.794433 28.207 0.794433 18.5742ZM11.1718 20.6062L16.4038 15.2977L16.4038 28.1367C16.4038 29.0719 17.1771 29.8242 18.1382 29.8242L19.2944 29.8242C20.2556 29.8242 21.0288 29.0719 21.0288 28.1367L21.0288 15.2977L26.2608 20.6062C26.9329 21.2883 28.053 21.3023 28.7396 20.6344L29.5272 19.8609C30.2065 19.2 30.2065 18.1312 29.5272 17.4773L19.9448 8.14687C19.2655 7.48594 18.1671 7.48594 17.495 8.14687L7.89814 17.4773C7.21885 18.1383 7.21885 19.207 7.89814 19.8609L8.68584 20.6344C9.37959 21.3023 10.4997 21.2883 11.1718 20.6062Z" fill="#EA463B"/>
</g>
<defs>
<clipPath id="clip0_44_496">
<rect width="36" height="37" fill="white" transform="translate(0.216309 36.5742) rotate(-90)"/>
</clipPath>
</defs>
</svg>
